<svg version="1.1" id="Layer_1" xmlns="http://www.w3.org/2000/svg" xmlns:xlink="http://www.w3.org/1999/xlink" x="0px" y="0px"
	 width="100%" viewBox="0 0 512 512" enable-background="new 0 0 512 512" xml:space="preserve">
<path fill="#FFFFFF" opacity="1.000000" stroke="none" 
	d="
M290.000000,513.000000 
	C193.356796,513.000000 97.213585,513.000000 1.035192,513.000000 
	C1.035192,342.398438 1.035192,171.796860 1.035192,1.097646 
	C171.559891,1.097646 342.119843,1.097646 512.839905,1.097646 
	C512.839905,171.666550 512.839905,342.333252 512.839905,513.000000 
	C438.796844,513.000000 364.648407,513.000000 290.000000,513.000000 
M17.617702,316.004669 
	C24.366966,316.004669 31.116230,316.004669 38.290916,316.004669 
	C38.290916,300.550842 38.290916,285.955231 38.290916,271.320068 
	C50.465393,271.320068 62.174538,271.320068 74.373566,271.320068 
	C74.373566,286.330505 74.373566,300.924255 74.373566,315.583740 
	C83.405724,315.583740 91.934479,315.583740 100.480324,315.583740 
	C100.480324,278.923187 100.480324,242.685120 100.480324,206.379913 
	C91.620598,206.379913 83.097374,206.379913 73.986008,206.379913 
	C73.986008,220.371490 73.986008,233.928940 73.986008,247.895309 
	C63.924007,247.895309 54.456306,247.897034 44.988609,247.894745 
	C38.078030,247.893082 38.076565,247.890732 38.075802,240.805878 
	C38.074562,229.362762 38.075470,217.919647 38.075470,206.280548 
	C29.097967,206.280548 20.716284,206.280548 12.101768,206.280548 
	C12.101768,242.864609 12.101768,279.106354 12.101768,315.689636 
	C13.755557,315.804138 15.202063,315.904327 17.617702,316.004669 
M252.780563,315.217926 
	C262.203491,287.632782 271.626404,260.047638 281.247894,231.881287 
	C273.151825,231.881287 265.999634,231.728638 258.866150,232.025940 
	C257.623047,232.077744 255.728714,233.825348 255.370377,235.129181 
	C251.407806,249.547455 247.686340,264.032043 243.906769,278.500549 
	C242.950500,282.161194 242.019562,285.828491 240.750961,290.760101 
	C239.880066,288.209930 239.471756,287.124847 239.136993,286.017517 
	C234.086685,269.312714 229.088821,252.591705 223.930206,235.920441 
	C223.465988,234.420212 222.023285,232.127350 220.957504,232.083435 
	C213.035706,231.757141 205.094330,231.906418 196.517075,231.906418 
	C197.159088,234.045975 197.476242,235.470825 198.005463,236.811996 
	C207.467606,260.791168 216.791306,284.827454 226.557373,308.682495 
	C228.892807,314.387146 227.359924,318.853302 224.133743,322.986725 
	C220.946930,327.069702 216.242203,328.198486 211.119156,327.408478 
	C210.006546,327.236908 208.866684,327.242157 207.307037,327.136749 
	C205.787109,333.668793 204.307434,340.027924 202.833038,346.364288 
	C221.414520,351.251831 235.813538,346.234436 242.864456,334.498871 
	C246.446091,328.537598 249.292374,322.134521 252.780563,315.217926 
M295.875397,303.628082 
	C309.806183,320.770416 341.659485,323.075531 358.710541,308.001373 
	C355.918518,303.017548 353.103119,297.991974 350.331726,293.044891 
	C327.106354,300.896515 312.549622,296.645813 312.453156,281.808563 
	C314.256836,281.808563 316.060242,281.808533 317.863647,281.808563 
	C330.679291,281.808655 343.499603,281.614746 356.307922,281.921326 
	C360.408173,282.019501 361.924957,280.253845 361.753387,276.821564 
	C361.406586,269.883911 361.588837,262.737976 359.932343,256.081207 
	C354.645630,234.836197 336.978424,225.797195 316.584869,231.100494 
	C281.567169,240.206741 279.288269,284.579834 295.875397,303.628082 
M173.498306,281.809021 
	C177.827911,281.808990 182.182770,281.519684 186.479568,281.895142 
	C190.313934,282.230133 191.843658,280.353333 191.717377,277.136871 
	C191.451202,270.357574 191.613419,263.407806 190.140396,256.856140 
	C183.803818,228.672470 155.371368,224.626587 138.028214,234.349716 
	C121.090317,243.845642 115.138245,259.327545 116.085892,278.111969 
	C117.052185,297.265839 128.678253,312.153992 147.248383,316.633911 
	C162.181198,320.236389 176.082062,317.276764 188.939636,308.377167 
	C185.871872,302.927063 183.049713,297.913239 180.273239,292.980621 
	C157.871613,301.216034 141.775314,296.463959 142.615509,281.808899 
	C152.558563,281.808899 162.528824,281.808899 173.498306,281.809021 
M485.499878,281.808929 
	C491.161743,281.808777 496.841492,281.534973 502.479248,281.903564 
	C506.311707,282.154114 507.878265,280.344482 507.712677,277.138947 
	C507.328491,269.702972 507.674316,261.970398 505.706787,254.921188 
	C498.280518,228.314514 471.357300,225.225662 454.931213,233.921707 
	C437.323303,243.243408 431.145538,258.915405 432.092529,278.110931 
	C433.038300,297.281860 444.663971,312.143036 463.251038,316.632202 
	C478.183167,320.238617 492.084625,317.278351 504.937347,308.377289 
	C501.871826,302.926422 499.051727,297.911957 496.277649,292.979248 
	C473.856812,301.199005 457.781372,296.455292 458.612946,281.808563 
	C467.223358,281.808563 475.861664,281.808563 485.499878,281.808929 
M385.880035,309.594452 
	C393.997040,319.619049 412.875275,319.985046 426.777344,314.335114 
	C425.451294,308.337189 424.112549,302.281921 422.820374,296.437256 
	C419.815613,296.744019 417.510010,297.133911 415.196869,297.184967 
	C409.526276,297.310242 405.411072,294.763000 405.209686,289.618073 
	C404.736420,277.526367 405.058075,265.403534 405.058075,252.836044 
	C411.371826,252.535782 417.439819,252.247208 423.663605,251.951218 
	C423.663605,245.149063 423.663605,238.638763 423.663605,231.710754 
	C417.259613,231.710754 411.312897,231.710754 404.629944,231.710754 
	C404.629944,224.269043 404.629944,217.223328 404.629944,209.820694 
	C397.577972,209.820694 391.261261,209.684509 384.962402,209.958542 
	C383.946136,210.002762 382.362732,211.753708 382.147583,212.919800 
	C381.214081,217.978745 380.526428,223.099182 380.084442,228.226151 
	C379.849609,230.950058 378.824860,231.984634 376.105072,232.077011 
	C373.047455,232.180862 370.006165,232.766235 367.092590,233.125504 
	C367.092590,239.810791 367.092590,245.753571 367.092590,252.004608 
	C370.754547,252.372604 374.156952,252.714508 378.000305,253.100739 
	C378.000305,255.151520 377.995056,256.950958 378.001190,258.750305 
	C378.034668,268.578766 377.871521,278.413269 378.170532,288.233704 
	C378.402222,295.841644 380.377045,303.025635 385.880035,309.594452 
z"/>
<path fill="#769AF2" opacity="1.000000" stroke="none" 
	d="
M17.133137,316.004578 
	C15.202063,315.904327 13.755557,315.804138 12.101768,315.689636 
	C12.101768,279.106354 12.101768,242.864609 12.101768,206.280548 
	C20.716284,206.280548 29.097967,206.280548 38.075470,206.280548 
	C38.075470,217.919647 38.074562,229.362762 38.075802,240.805878 
	C38.076565,247.890732 38.078030,247.893082 44.988609,247.894745 
	C54.456306,247.897034 63.924007,247.895309 73.986008,247.895309 
	C73.986008,233.928940 73.986008,220.371490 73.986008,206.379913 
	C83.097374,206.379913 91.620598,206.379913 100.480324,206.379913 
	C100.480324,242.685120 100.480324,278.923187 100.480324,315.583740 
	C91.934479,315.583740 83.405724,315.583740 74.373566,315.583740 
	C74.373566,300.924255 74.373566,286.330505 74.373566,271.320068 
	C62.174538,271.320068 50.465393,271.320068 38.290916,271.320068 
	C38.290916,285.955231 38.290916,300.550842 38.290916,316.004669 
	C31.116230,316.004669 24.366966,316.004669 17.133137,316.004578 
z"/>
<path fill="#759AF2" opacity="1.000000" stroke="none" 
	d="
M252.625824,315.574554 
	C249.292374,322.134521 246.446091,328.537598 242.864456,334.498871 
	C235.813538,346.234436 221.414520,351.251831 202.833038,346.364288 
	C204.307434,340.027924 205.787109,333.668793 207.307037,327.136749 
	C208.866684,327.242157 210.006546,327.236908 211.119156,327.408478 
	C216.242203,328.198486 220.946930,327.069702 224.133743,322.986725 
	C227.359924,318.853302 228.892807,314.387146 226.557373,308.682495 
	C216.791306,284.827454 207.467606,260.791168 198.005463,236.811996 
	C197.476242,235.470825 197.159088,234.045975 196.517075,231.906418 
	C205.094330,231.906418 213.035706,231.757141 220.957504,232.083435 
	C222.023285,232.127350 223.465988,234.420212 223.930206,235.920441 
	C229.088821,252.591705 234.086685,269.312714 239.136993,286.017517 
	C239.471756,287.124847 239.880066,288.209930 240.750961,290.760101 
	C242.019562,285.828491 242.950500,282.161194 243.906769,278.500549 
	C247.686340,264.032043 251.407806,249.547455 255.370377,235.129181 
	C255.728714,233.825348 257.623047,232.077744 258.866150,232.025940 
	C265.999634,231.728638 273.151825,231.881287 281.247894,231.881287 
	C271.626404,260.047638 262.203491,287.632782 252.625824,315.574554 
z"/>
<path fill="#769AF2" opacity="1.000000" stroke="none" 
	d="
M295.659454,303.345367 
	C279.288269,284.579834 281.567169,240.206741 316.584869,231.100494 
	C336.978424,225.797195 354.645630,234.836197 359.932343,256.081207 
	C361.588837,262.737976 361.406586,269.883911 361.753387,276.821564 
	C361.924957,280.253845 360.408173,282.019501 356.307922,281.921326 
	C343.499603,281.614746 330.679291,281.808655 317.863647,281.808563 
	C316.060242,281.808533 314.256836,281.808563 312.453156,281.808563 
	C312.549622,296.645813 327.106354,300.896515 350.331726,293.044891 
	C353.103119,297.991974 355.918518,303.017548 358.710541,308.001373 
	C341.659485,323.075531 309.806183,320.770416 295.659454,303.345367 
M317.682068,264.791016 
	C324.941895,264.791016 332.201721,264.791016 339.407684,264.791016 
	C339.823669,255.897110 335.794220,250.570831 328.788330,249.988495 
	C318.854919,249.162811 312.684052,254.204651 311.394592,264.790924 
	C313.226440,264.790924 314.987122,264.790924 317.682068,264.791016 
z"/>
<path fill="#769AF2" opacity="1.000000" stroke="none" 
	d="
M172.998703,281.808960 
	C162.528824,281.808899 152.558563,281.808899 142.615509,281.808899 
	C141.775314,296.463959 157.871613,301.216034 180.273239,292.980621 
	C183.049713,297.913239 185.871872,302.927063 188.939636,308.377167 
	C176.082062,317.276764 162.181198,320.236389 147.248383,316.633911 
	C128.678253,312.153992 117.052185,297.265839 116.085892,278.111969 
	C115.138245,259.327545 121.090317,243.845642 138.028214,234.349716 
	C155.371368,224.626587 183.803818,228.672470 190.140396,256.856140 
	C191.613419,263.407806 191.451202,270.357574 191.717377,277.136871 
	C191.843658,280.353333 190.313934,282.230133 186.479568,281.895142 
	C182.182770,281.519684 177.827911,281.808990 172.998703,281.808960 
M159.068436,249.998032 
	C148.167969,249.787476 142.037079,254.823822 141.580719,264.488159 
	C150.846664,264.488159 160.103958,264.488159 169.331619,264.488159 
	C170.002563,256.683929 167.187897,252.476440 159.068436,249.998032 
z"/>
<path fill="#769AF2" opacity="1.000000" stroke="none" 
	d="
M484.999939,281.808746 
	C475.861664,281.808563 467.223358,281.808563 458.612946,281.808563 
	C457.781372,296.455292 473.856812,301.199005 496.277649,292.979248 
	C499.051727,297.911957 501.871826,302.926422 504.937347,308.377289 
	C492.084625,317.278351 478.183167,320.238617 463.251038,316.632202 
	C444.663971,312.143036 433.038300,297.281860 432.092529,278.110931 
	C431.145538,258.915405 437.323303,243.243408 454.931213,233.921707 
	C471.357300,225.225662 498.280518,228.314514 505.706787,254.921188 
	C507.674316,261.970398 507.328491,269.702972 507.712677,277.138947 
	C507.878265,280.344482 506.311707,282.154114 502.479248,281.903564 
	C496.841492,281.534973 491.161743,281.808777 484.999939,281.808746 
M458.833496,258.505951 
	C458.213104,260.326233 457.592712,262.146515 456.804504,264.459198 
	C466.783569,264.459198 476.095917,264.459198 485.387726,264.459198 
	C485.898773,256.688843 482.127014,251.089996 475.924377,250.063278 
	C468.505524,248.835236 463.265045,251.254944 458.833496,258.505951 
z"/>
<path fill="#759AF2" opacity="1.000000" stroke="none" 
	d="
M385.629761,309.332581 
	C380.377045,303.025635 378.402222,295.841644 378.170532,288.233704 
	C377.871521,278.413269 378.034668,268.578766 378.001190,258.750305 
	C377.995056,256.950958 378.000305,255.151520 378.000305,253.100739 
	C374.156952,252.714508 370.754547,252.372604 367.092590,252.004608 
	C367.092590,245.753571 367.092590,239.810791 367.092590,233.125504 
	C370.006165,232.766235 373.047455,232.180862 376.105072,232.077011 
	C378.824860,231.984634 379.849609,230.950058 380.084442,228.226151 
	C380.526428,223.099182 381.214081,217.978745 382.147583,212.919800 
	C382.362732,211.753708 383.946136,210.002762 384.962402,209.958542 
	C391.261261,209.684509 397.577972,209.820694 404.629944,209.820694 
	C404.629944,217.223328 404.629944,224.269043 404.629944,231.710754 
	C411.312897,231.710754 417.259613,231.710754 423.663605,231.710754 
	C423.663605,238.638763 423.663605,245.149063 423.663605,251.951218 
	C417.439819,252.247208 411.371826,252.535782 405.058075,252.836044 
	C405.058075,265.403534 404.736420,277.526367 405.209686,289.618073 
	C405.411072,294.763000 409.526276,297.310242 415.196869,297.184967 
	C417.510010,297.133911 419.815613,296.744019 422.820374,296.437256 
	C424.112549,302.281921 425.451294,308.337189 426.777344,314.335114 
	C412.875275,319.985046 393.997040,319.619049 385.629761,309.332581 
z"/>
<path fill="#F8FAFE" opacity="1.000000" stroke="none" 
	d="
M317.214935,264.790955 
	C314.987122,264.790924 313.226440,264.790924 311.394592,264.790924 
	C312.684052,254.204651 318.854919,249.162811 328.788330,249.988495 
	C335.794220,250.570831 339.823669,255.897110 339.407684,264.791016 
	C332.201721,264.791016 324.941895,264.791016 317.214935,264.790955 
z"/>
<path fill="#F8FAFE" opacity="1.000000" stroke="none" 
	d="
M159.489349,250.030106 
	C167.187897,252.476440 170.002563,256.683929 169.331619,264.488159 
	C160.103958,264.488159 150.846664,264.488159 141.580719,264.488159 
	C142.037079,254.823822 148.167969,249.787476 159.489349,250.030106 
z"/>
<path fill="#F8FAFE" opacity="1.000000" stroke="none" 
	d="
M458.984741,258.160522 
	C463.265045,251.254944 468.505524,248.835236 475.924377,250.063278 
	C482.127014,251.089996 485.898773,256.688843 485.387726,264.459198 
	C476.095917,264.459198 466.783569,264.459198 456.804504,264.459198 
	C457.592712,262.146515 458.213104,260.326233 458.984741,258.160522 
z"/>
</svg>
